<svg xmlns="http://www.w3.org/2000/svg" data-name="Layer 1" viewBox="0 0 95 118.75" x="0px" y="0px"><title>square lines geometric pattern</title><polygon points="56.41 46.51 30.68 46.51 30.68 0.99 0 0.99 0 2.97 28.7 2.97 28.7 48.49 54.43 48.49 54.43 76.2 76.2 76.2 76.2 95 78.18 95 78.18 74.22 56.41 74.22 56.41 46.51"/><polygon points="52.45 50.47 26.72 50.47 26.72 4.95 0 4.95 0 6.93 24.74 6.93 24.74 52.45 50.47 52.45 50.47 80.16 72.24 80.16 72.24 95 74.22 95 74.22 78.18 52.45 78.18 52.45 50.47"/><polygon points="48.49 54.43 22.76 54.43 22.76 8.91 0 8.91 0 10.88 20.78 10.88 20.78 56.41 46.51 56.41 46.51 84.11 68.28 84.11 68.28 95 70.26 95 70.26 82.14 48.49 82.14 48.49 54.43"/><polygon points="44.53 58.38 18.8 58.38 18.8 12.87 0 12.87 0 14.84 16.82 14.84 16.82 60.37 42.55 60.37 42.55 88.07 64.32 88.07 64.32 95 66.3 95 66.3 86.09 44.53 86.09 44.53 58.38"/><polygon points="40.57 62.34 14.84 62.34 14.84 16.82 0 16.82 0 18.8 12.87 18.8 12.87 64.32 38.59 64.32 38.59 92.03 60.37 92.03 60.37 95 62.34 95 62.34 90.05 40.57 90.05 40.57 62.34"/><polygon points="10.88 20.78 0 20.78 0 22.76 8.91 22.76 8.91 68.28 34.63 68.28 34.63 95 36.62 95 36.62 66.3 10.88 66.3 10.88 20.78"/><polygon points="6.93 24.74 0 24.74 0 26.72 4.95 26.72 4.95 72.24 30.68 72.24 30.68 95 32.66 95 32.66 70.26 6.93 70.26 6.93 24.74"/><polygon points="2.97 28.7 0 28.7 0 30.68 0.99 30.68 0.99 76.2 26.72 76.2 26.72 95 28.7 95 28.7 74.22 2.97 74.22 2.97 28.7"/><polygon points="0 80.16 22.76 80.16 22.76 95 24.74 95 24.74 78.18 0 78.18 0 80.16"/><polygon points="0 84.11 18.8 84.11 18.8 95 20.78 95 20.78 82.14 0 82.14 0 84.11"/><polygon points="0 88.07 14.84 88.07 14.84 95 16.82 95 16.82 86.09 0 86.09 0 88.07"/><polygon points="0 92.03 10.88 92.03 10.88 95 12.87 95 12.87 90.05 0 90.05 0 92.03"/><polygon points="60.37 42.55 34.63 42.55 34.63 0 32.66 0 32.66 44.53 58.38 44.53 58.38 72.24 80.16 72.24 80.16 95 82.14 95 82.14 70.26 60.37 70.26 60.37 42.55"/><polygon points="86.09 66.3 64.32 66.3 64.32 38.59 38.59 38.59 38.59 0 36.62 0 36.62 40.57 62.34 40.57 62.34 68.28 84.11 68.28 84.11 94.01 95 94.01 95 92.03 86.09 92.03 86.09 66.3"/><polygon points="90.05 62.34 68.28 62.34 68.28 34.63 42.55 34.63 42.55 0 40.57 0 40.57 36.62 66.3 36.62 66.3 64.32 88.07 64.32 88.07 90.05 95 90.05 95 88.07 90.05 88.07 90.05 62.34"/><polygon points="94.01 58.38 72.24 58.38 72.24 30.68 46.51 30.68 46.51 0 44.53 0 44.53 32.66 70.26 32.66 70.26 60.37 92.03 60.37 92.03 86.09 95 86.09 95 84.11 94.01 84.11 94.01 58.38"/><polygon points="76.2 26.72 50.47 26.72 50.47 0 48.49 0 48.49 28.7 74.22 28.7 74.22 56.41 95 56.41 95 54.43 76.2 54.43 76.2 26.72"/><polygon points="80.16 22.76 54.43 22.76 54.43 0 52.45 0 52.45 24.74 78.18 24.74 78.18 52.45 95 52.45 95 50.47 80.16 50.47 80.16 22.76"/><polygon points="84.11 18.8 58.38 18.8 58.38 0 56.41 0 56.41 20.78 82.14 20.78 82.14 48.49 95 48.49 95 46.51 84.11 46.51 84.11 18.8"/><polygon points="88.07 14.84 62.34 14.84 62.34 0 60.37 0 60.37 16.82 86.09 16.82 86.09 44.53 95 44.53 95 42.55 88.07 42.55 88.07 14.84"/><polygon points="92.03 10.88 66.3 10.88 66.3 0 64.32 0 64.32 12.87 90.05 12.87 90.05 40.57 95 40.57 95 38.59 92.03 38.59 92.03 10.88"/><polygon points="70.26 0 68.28 0 68.28 8.91 95 8.91 95 6.93 70.26 6.93 70.26 0"/><polygon points="74.22 2.97 74.22 0 72.24 0 72.24 4.95 95 4.95 95 2.97 74.22 2.97"/><text x="0" y="110" fill="#000000" font-size="5px" font-weight="bold" font-family="'Helvetica Neue', Helvetica, Arial-Unicode, Arial, Sans-serif">Created by Aiden Regalado</text><text x="0" y="115" fill="#000000" font-size="5px" font-weight="bold" font-family="'Helvetica Neue', Helvetica, Arial-Unicode, Arial, Sans-serif">from the Noun Project</text></svg>